<svg xmlns="http://www.w3.org/2000/svg" viewBox="0 0 1011.4 961.83"><defs><style>.cls-1{fill:#f9ebaf;}.cls-2{fill:#c5cfd6;}.cls-3{fill:#dde3e9;}.cls-16,.cls-20,.cls-4{fill:#fff;}.cls-5{fill:#f3f3f3;}.cls-6{fill:#f2f2f2;}.cls-7{fill:#69a1ac;}.cls-8{fill:#997659;}.cls-9{fill:#b6916f;}.cls-10{fill:#d4a181;}.cls-11{fill:#3f726f;}.cls-12,.cls-13,.cls-14{fill:none;}.cls-12,.cls-13,.cls-14,.cls-16{stroke:#45494c;stroke-miterlimit:10;}.cls-12{stroke-width:1.21px;}.cls-13{stroke-width:3.63px;}.cls-14,.cls-16{stroke-width:1.97px;}.cls-15{fill:#45494c;}.cls-17{fill:#4a65ba;}.cls-18{fill:#2b2e31;}.cls-19{fill:#293f75;}.cls-20,.cls-21,.cls-22{fill-rule:evenodd;}.cls-21{fill:#9da2a5;}.cls-22{fill:#b65e68;}</style></defs><title>Asset 55</title><g id="Layer_2" data-name="Layer 2"><g id="Lager_2" data-name="Lager 2"><path class="cls-1" d="M848.16,801.25h0c-5.38,4.3-10.88,8.54-16.55,12.74q-14.28,10.56-29.75,20.67Q797,837.85,792,841,771,854.08,747.91,866.3q-22.6,11.94-47.32,23-40.41,18-86.59,33.46a408.54,408.54,0,0,1-46.82,12.57c-6.56,1.34-13.11,2.53-19.7,3.54A408.6,408.6,0,0,1,487,943.63q-3.76,0-7.51,0a418.06,418.06,0,0,1-45.42-3.08c-75.44-9.27-148.88-39-213.25-86.73C109.21,771,24.82,634.1,4.4,455.6q-1.82-15.81-2.95-32.05c-4.16-60,.77-111.58,12.74-155.93,0,0,0,0,0,0C78.74,28.17,348.18,0,496.66,0,704.72,0,866.83,31.65,962.83,255.65,1049,456.62,1026.33,658.57,848.16,801.25Z"/><path class="cls-2" d="M163.73,961.25l279-28.67c14.19,0,17.58-26.07,17.58-40.25L504.46,198.2c0-22.06-21.48-27.7-35.66-27.7l-351,22.06a25.68,25.68,0,0,0-25.68,25.68l-.06,712.14c0,23.15,38.59,34.18,71.67,30.87"/><path class="cls-3" d="M164.12,961l316.81-33.08a25.68,25.68,0,0,0,25.68-25.68V206.11a25.68,25.68,0,0,0-25.68-25.68l-316.81,22a25.69,25.69,0,0,0-25.69,25.68V935.33A25.69,25.69,0,0,0,164.12,961"/><polygon class="cls-4" points="177.37 856.14 477.6 823.06 477.6 249.73 177.37 272.89 177.37 856.14"/><path class="cls-2" d="M307.89,886.52a25.66,25.66,0,1,0,25.66-25.66,25.66,25.66,0,0,0-25.66,25.66"/><path class="cls-5" d="M307.08,887.62a23.86,23.86,0,1,0,23.86-23.85,23.86,23.86,0,0,0-23.86,23.85"/><polygon class="cls-2" points="466.97 824.52 480.2 824.52 480.2 248.92 466.97 250.02 466.97 824.52"/><polygon class="cls-2" points="482.39 822.21 482.56 811.47 179.32 844.55 179.32 854.48 482.39 822.21"/><polygon class="cls-6" points="466.97 317.28 466.97 250.02 179.17 273.18 179.17 340.44 466.97 317.28"/><polygon class="cls-6" points="468.07 815.7 468.07 769.39 176.97 792.54 176.97 846.57 468.07 815.7"/><path class="cls-7" d="M268.72,379.13c-2.69-17-19.79-16.5-35.22-12-16.35,6.2-28.37,23.08-22.67,39.23,4.26,12.06,21.69,17.85,34.86,12.38,15.17-6.29,25.32-25.14,23-39.63"/><path class="cls-6" d="M270,378.79c-2.8-17.75-20.62-17.19-36.7-12.48-17,6.46-29.57,24.06-23.63,40.89,4.43,12.56,22.6,18.6,36.33,12.9,15.8-6.56,26.39-26.2,24-41.31M245.24,417c-12.26,5.09-28.49-.3-32.45-11.52-5.31-15,5.88-30.75,21.1-36.53,14.48-3.38,30.28-4.7,32.79,11.16,2.13,13.49-7.32,31-21.44,36.89"/><path class="cls-8" d="M237.43,377.05c-1.15-.54-2.67,0-4,.51a6.68,6.68,0,0,0-1.69.89c-1.48,1.18-1.79,3.38-3.27,4.56a8.5,8.5,0,0,1-1.1.7,4.47,4.47,0,0,0-2.19,2.37c-.37,1.34.56,2.42.7,3.71a5.19,5.19,0,0,1-.75,2.9,6.43,6.43,0,0,0-.67,1.37,2.81,2.81,0,0,0-.06,1.22,3.37,3.37,0,0,0,2.62,3,6.84,6.84,0,0,0,2,0l3.09-.29a.35.35,0,0,0,.24-.1.32.32,0,0,0,.06-.21q0-3.45.07-6.9a27.44,27.44,0,0,1,.34-4.93,11.12,11.12,0,0,1,2.06-4.77c.3-.4.65-.77.95-1.17a15.54,15.54,0,0,0,1.61-2.79"/><polygon class="cls-9" points="241.78 404.54 229.96 406.48 232.1 397.75 240.57 396.37 241.78 404.54"/><path class="cls-10" d="M239.23,377.53c-7.61.84-9.43,5.15-10.43,11.41-.78,4.82,0,11.77,6,11.52,9.09-.39,14.39-21.46,4.42-22.93"/><path class="cls-11" d="M234.63,405c5.09-.6,6.52-3.05,6.77-3.05a15.5,15.5,0,0,1,7.92,2.71,18.24,18.24,0,0,1,4.81,5.55.69.69,0,0,1,.12.42,1,1,0,0,1-.37.52,23.48,23.48,0,0,1-4.34,2.87,40,40,0,0,1-4.32,2.21,25.4,25.4,0,0,1-6.22,1.63,28.12,28.12,0,0,1-11.46-.54,17,17,0,0,1-8.94-5.76,26.32,26.32,0,0,1,11.94-7.46s1.13,1.25,4.09.9"/><path class="cls-8" d="M238.76,381.08c.59,1-.25,2.6-.38,3.9a3.05,3.05,0,0,0,.07,1.32,2,2,0,0,0,1.21,1.12,3.57,3.57,0,0,0,3.1-.27,16.28,16.28,0,0,1-2.55,10.39c.73-1.14,2.2.65,3.45.33,2.71-.44,4.77-3.92,5-5.22.53-2.76-1.69-4.32-1.47-5.33a12.55,12.55,0,0,0,.53-4.68,1.84,1.84,0,0,0-.77-1.28,2,2,0,0,1-.51-.3.9.9,0,0,1-.21-.45,9.84,9.84,0,0,0-.63-2.47,3.58,3.58,0,0,0-2.41-1.55,9.68,9.68,0,0,0-3.29-.6c-3.62.42-7.72,3.85-7.72,3.85,1.14.11,5.39-.82,6.56,1.24"/><path class="cls-3" d="M386,398.41,293.26,407a6.63,6.63,0,0,1-7.43-7.58l.36-14.28a10.58,10.58,0,0,1,9.12-9.11l92.68-8.6a6.62,6.62,0,0,1,7.43,7.58l-.35,14.28a10.59,10.59,0,0,1-9.12,9.11"/><path class="cls-3" d="M426.77,394.65,408,396.46a6.63,6.63,0,0,1-7.43-7.59l.35-14.28a10.59,10.59,0,0,1,9.12-9.1l18.76-1.8a6.63,6.63,0,0,1,7.44,7.58l-.36,14.28a10.58,10.58,0,0,1-9.12,9.1"/><path class="cls-12" d="M319.2,817.41l-12.62,1.22c-3.06.28-5.27-2.45-4.9-6.07l.41-11.28c.37-3.63,3.17-6.82,6.23-7.1L321,793c3.06-.29,5.26,2.45,4.9,6.07l-.41,11.28C325.07,813.93,322.26,817.13,319.2,817.41Z"/><line class="cls-13" x1="211.74" y1="446.65" x2="439.84" y2="425.09"/><line class="cls-13" x1="212.09" y1="471.82" x2="440.19" y2="450.27"/><path d="M244,318.86a.14.14,0,0,1-.16-.16l.07-.63h0a3.38,3.38,0,0,1-2.5,1.21c-1.56.13-2.78-.57-2.58-2.37s1.59-2.84,3.69-3l1.73-.15a.13.13,0,0,0,.12-.12l0-.41c.11-1-.31-1.38-1.74-1.26a3.47,3.47,0,0,0-2,.76c-.1.07-.2.06-.24,0l-.53-1.12a.18.18,0,0,1,.06-.23,5.77,5.77,0,0,1,3.11-1.1c2.59-.23,3.45.58,3.23,2.68l-.6,5.62a.21.21,0,0,1-.2.19Zm.1-2.87.07-.66c0-.07,0-.1-.1-.1l-1.41.13c-1.27.11-1.87.51-2,1.31s.4,1,1.35.95c1.22-.11,1.94-.65,2.05-1.63"/><path d="M250.41,318.4c-1.66.15-2.25-.6-2.07-2.25l1-9.59a.21.21,0,0,1,.19-.19l1.63-.14c.1,0,.16,0,.15.16l-1,9.48c-.07.59.14.76.65.72l.39,0a.13.13,0,0,1,.16.16l-.15,1.42a.2.2,0,0,1-.2.19Z"/><path d="M254.52,307.83c-.11,0-.17-.06-.16-.17l.17-1.55a.2.2,0,0,1,.19-.19l1.62-.14a.13.13,0,0,1,.16.16l-.16,1.55a.22.22,0,0,1-.2.2ZM253.43,318a.13.13,0,0,1-.15-.16l.87-8.23a.21.21,0,0,1,.19-.19l1.63-.14a.13.13,0,0,1,.16.16l-.88,8.23a.2.2,0,0,1-.19.19Z"/><polygon points="256.26 320.19 256.39 319.01 265.07 318.26 264.95 319.43 256.26 320.19"/><path d="M266.1,315.79a.18.18,0,0,1,0-.25l1.12-1.16c.08-.08.18-.09.24,0a3.26,3.26,0,0,0,2.39.76c1-.09,1.61-.56,1.68-1.15s-.21-.81-1.31-.82h-.91c-1.71,0-2.5-.84-2.35-2.3.18-1.66,1.48-2.81,3.59-3a4.38,4.38,0,0,1,3.09.78.16.16,0,0,1,0,.24l-1,1.13a.19.19,0,0,1-.25.06,3.44,3.44,0,0,0-2.15-.52c-.85.07-1.33.48-1.38,1s.21.78,1.29.79h.91c1.77,0,2.52.87,2.37,2.28-.19,1.71-1.55,3-3.88,3.21a4.39,4.39,0,0,1-3.51-1"/><path d="M277.57,315.94a.18.18,0,0,1-.21-.16l-2.13-8a.17.17,0,0,1,.16-.19l1.73-.15c.11,0,.17.06.2.16L278.6,313h0l2.43-5.74a.27.27,0,0,1,.23-.19L283,307c.11,0,.17.06.13.16l-3.88,8.5a.28.28,0,0,1-.25.19Z"/><path d="M283.82,313.22a6.33,6.33,0,0,1-.08-2.07,8.09,8.09,0,0,1,.51-2.15,4.37,4.37,0,0,1,3.73-2.67c1.75-.15,2.92.65,3.24,2.07a7.35,7.35,0,0,1,0,2.56.22.22,0,0,1-.21.19l-5.24.46c-.08,0-.12,0-.12.11a1.69,1.69,0,0,0,0,.65,1.49,1.49,0,0,0,1.77,1.14,3.16,3.16,0,0,0,2.08-1c.1-.09.19-.12.27-.06l.94.84c.08.06.07.15,0,.25a5.43,5.43,0,0,1-3.65,1.76c-1.8.16-3-.62-3.29-2.08m5.54-4.24a1.32,1.32,0,0,0-1.54-1,2.13,2.13,0,0,0-1.8,1.25,2.51,2.51,0,0,0-.18.74c0,.07,0,.11.09.1l3.34-.29a.12.12,0,0,0,.12-.12,2.07,2.07,0,0,0,0-.72"/><path d="M298.32,314.14a.14.14,0,0,1-.16-.17l.53-5c.12-1.1-.35-1.82-1.41-1.73a2.07,2.07,0,0,0-1.82,2l-.53,4.95a.21.21,0,0,1-.19.2l-1.63.14c-.1,0-.16-.06-.15-.17l.87-8.22a.22.22,0,0,1,.2-.2l1.62-.14a.14.14,0,0,1,.16.16l-.07.63h0a3.25,3.25,0,0,1,2.35-1.2c1.81-.15,2.8,1.1,2.61,2.93l-.58,5.42a.2.2,0,0,1-.19.19Z"/><path d="M302.22,312.65a.19.19,0,0,1,0-.25l1.12-1.16a.19.19,0,0,1,.25,0A3.29,3.29,0,0,0,306,312c1-.09,1.61-.57,1.67-1.16s-.21-.81-1.31-.82h-.91c-1.71,0-2.5-.84-2.34-2.3.18-1.66,1.47-2.81,3.59-3a4.34,4.34,0,0,1,3.08.77.17.17,0,0,1,0,.25l-1,1.12a.18.18,0,0,1-.25.06,3.51,3.51,0,0,0-2.15-.52c-.84.07-1.32.49-1.38,1s.22.78,1.3.79h.91c1.76,0,2.51.88,2.36,2.28-.18,1.71-1.54,3-3.87,3.22a4.38,4.38,0,0,1-3.51-1"/><path d="M311,311.89a.18.18,0,0,1,0-.25l1.12-1.16a.17.17,0,0,1,.25,0,3.22,3.22,0,0,0,2.38.76c1-.09,1.62-.56,1.68-1.15s-.21-.81-1.31-.82h-.91c-1.71,0-2.5-.84-2.34-2.3.17-1.66,1.47-2.81,3.58-3a4.42,4.42,0,0,1,3.09.78.16.16,0,0,1,0,.24l-1,1.13a.2.2,0,0,1-.25.06,3.44,3.44,0,0,0-2.15-.52c-.85.07-1.33.48-1.38,1s.21.78,1.3.79H316c1.76,0,2.51.87,2.36,2.28-.18,1.71-1.55,3-3.88,3.21a4.43,4.43,0,0,1-3.51-1"/><path d="M320.23,310.08a5.87,5.87,0,0,1-.05-2.1,7,7,0,0,1,.5-2.14,4.35,4.35,0,0,1,3.77-2.67c1.71-.15,2.92.61,3.24,2.06a6.07,6.07,0,0,1,.06,2.1,7,7,0,0,1-.51,2.14,4.35,4.35,0,0,1-3.75,2.67c-1.73.15-2.94-.61-3.26-2.06m5.16-1a5.38,5.38,0,0,0,.35-1.6,5,5,0,0,0,0-1.57,1.25,1.25,0,0,0-1.47-1,2,2,0,0,0-1.73,1.26,5.49,5.49,0,0,0-.34,1.6,4.47,4.47,0,0,0,0,1.57,1.26,1.26,0,0,0,1.48,1,2,2,0,0,0,1.71-1.26"/><path d="M334.79,311c-.11,0-.17-.06-.16-.17l.53-4.95c.12-1.1-.35-1.82-1.41-1.73a2.07,2.07,0,0,0-1.82,2l-.53,4.95a.21.21,0,0,1-.19.2l-1.63.14a.13.13,0,0,1-.15-.16l.87-8.23a.21.21,0,0,1,.19-.2l1.63-.14a.14.14,0,0,1,.16.16l-.07.63h0a3.24,3.24,0,0,1,2.34-1.2c1.82-.15,2.81,1.1,2.61,2.94l-.57,5.41a.2.2,0,0,1-.2.19Z"/><polygon points="337.53 313.13 337.65 311.95 346.34 311.2 346.21 312.37 337.53 313.13"/><path d="M351.86,299.85h0l-2,1.46c-.11.08-.2.05-.18-.09l.19-1.82a.39.39,0,0,1,.15-.26l2.08-1.57a.56.56,0,0,1,.32-.14l1.51-.13a.14.14,0,0,1,.15.17l-1.25,11.75a.21.21,0,0,1-.19.2l-1.63.14a.13.13,0,0,1-.15-.16Z"/><path d="M361.55,299h0l-2,1.46c-.12.08-.2,0-.18-.09l.19-1.82a.36.36,0,0,1,.15-.26l2.07-1.57a.55.55,0,0,1,.33-.14l1.5-.13c.11,0,.17.06.16.17l-1.25,11.75a.22.22,0,0,1-.2.2l-1.62.14c-.11,0-.17-.06-.16-.17Z"/><polyline class="cls-14" points="211.89 322.82 202.36 316.58 213.34 308.53 202.37 316.67 226.04 314.19"/><polygon class="cls-15" points="188.44 828.77 188.93 812.39 200.13 803.3 209.96 809.85 209.42 828.06 200.86 828.35 200.88 818.49 194.26 818.48 193.83 828.59 188.44 828.77"/><path class="cls-12" d="M373.82,812.12c-7.42-6.15-15.62-16-8.16-21.77,4.06-3.13,8.9,1.81,9.73,1.51,1-.37,8.21-8.9,12.58-4.21C396.36,796.66,373.82,812.12,373.82,812.12Z"/><path class="cls-12" d="M419,809.64c.56-18.49,24.25-17.22,23.74-.21"/><path class="cls-12" d="M436.37,787.32a7.27,7.27,0,0,1-5.91,6.65,4.57,4.57,0,0,1-5.57-4.77,7.26,7.26,0,0,1,5.91-6.64A4.56,4.56,0,0,1,436.37,787.32Z"/><path class="cls-12" d="M259.1,808.41A12.65,12.65,0,0,1,248.82,820c-5.51.9-9.84-2.8-9.68-8.29a12.65,12.65,0,0,1,10.27-11.55C254.92,799.22,259.26,802.93,259.1,808.41Z"/><path class="cls-14" d="M282,609.31c-.63,28.16,21.84,47.06,50.19,42.22S384,620,384.66,591.79s-21.83-47-50.19-42.21S282.61,581.16,282,609.31Z"/><path class="cls-14" d="M321.91,597.09c-.09,3.69,3.39,6.09,7.77,5.34l6.6-1.13c4.38-.74,8-4.34,8.08-8l.29-12.82c.08-3.69-1.32-12.54-11.29-10.84-9.61,1.64-11.08,11-11.16,14.67Z"/><path class="cls-16" d="M309.63,620.42a5.36,5.36,0,0,0,6.59,5.54l34.52-5.89a8.52,8.52,0,0,0,6.89-7.83l.54-24a5.35,5.35,0,0,0-6.58-5.54l-34.52,5.89a8.51,8.51,0,0,0-6.89,7.84Z"/><path class="cls-17" d="M96.12,276.45c3,0,10.5,1.07,21.43,2.95"/><line class="cls-12" x1="391.45" y1="808.61" x2="381.93" y2="818.13"/><path class="cls-2" d="M648.75,898.14c-4.47,23.58-78.69,18.79-51,30,18.84,7.61,65.59-4.88,82.94-11.09A218.26,218.26,0,0,1,661,896.11Z"/><path class="cls-2" d="M692.16,902.61c6.84,13.75-14.34,24-34.58,29.11-9,2.27-13.16,5.36-1.89,9.19,21.09,7.15,52-7.63,75.28-22.27a210.6,210.6,0,0,0-24.63-18.83Z"/><path class="cls-18" d="M616.55,463.25c-7.89-14.1-17.83-11.43-23.91-1.88-3.63,5.68-11,60.26-39,94.11-31.54,38.09-48.37,43-83.38,62.7L487.39,635c40.51-19.05,54.18-24.23,86.78-50.4,31.7-25.44,62.27-85.78,42.38-121.31"/><path d="M653.27,597.78c-16.18-11.24-46.79-3.56-51.53,11.29-12.55,39.41-18.35,92-16.38,140.33,3,73.85,35.77,120.09,47,156.25,1.34,4.31,34.08-9.1,33.6-10-92.12-174.55,27.3-270.06-12.72-297.86"/><path class="cls-18" d="M690,602.08c-16.66-10.51-46.91-1.48-51,13.56-10.8,39.92-7.93,79.18-3.84,127.37,6.26,73.65,25.55,100.93,47.55,167.57,1.42,4.28,33.5-10.53,33.13-11.49-64.07-166.3,15.35-271-25.86-297"/><path class="cls-19" d="M924.9,366.27A60.86,60.86,0,1,1,868,301.69,60.85,60.85,0,0,1,924.9,366.27Z"/><path class="cls-17" d="M923.37,359a60.87,60.87,0,1,1-56.91-64.58A60.86,60.86,0,0,1,923.37,359Z"/><path class="cls-20" d="M865.37,364.76c-2.14.19-4.16.29-6.17.56A48.18,48.18,0,0,0,838.47,373a33.33,33.33,0,0,0-8.89,8.51,3.4,3.4,0,0,1-3.73,1.45,3.27,3.27,0,0,1-2.48-2.75,10.83,10.83,0,0,1,.26-2.65,69.46,69.46,0,0,1,6.09-19.1,40.49,40.49,0,0,1,22.41-20,68.93,68.93,0,0,1,14.19-3.7c.65-.09.87-.33.9-1,.17-3.31.35-6.62.58-9.93a3.34,3.34,0,0,1,4.53-3.11,4.09,4.09,0,0,1,1.49,1q12.7,13.36,25.38,26.76c1.82,1.92,1.68,3.92-.35,5.62q-14.11,11.75-28.21,23.49a3.45,3.45,0,0,1-4,.63,3.35,3.35,0,0,1-1.84-3.54c.19-2.95.35-5.9.52-8.85C865.32,365.54,865.34,365.24,865.37,364.76Zm8.91-32.64c-.1.14-.15.18-.15.22-.12,1.7-.22,3.4-.33,5.09a3.41,3.41,0,0,1-3.33,3.58,82,82,0,0,0-12,2.45c-11,3.17-19.16,9.61-23.74,20.26-.65,1.51-1.22,3.07-1.83,4.6a13.29,13.29,0,0,0,2.24-1.29,57,57,0,0,1,33.86-8.9,3.34,3.34,0,0,1,3.36,3.67c-.06,1.58-.18,3.17-.27,4.75,0,.26,0,.52-.06,1l20-16.68C886.12,344.6,880.21,338.37,874.28,332.12Z"/><path class="cls-10" d="M814.82,427.83c2.81-3.87,4-9.76,8.69-10.68,4-.8,12.88-3,14.73-4.8s-2.8-2.76-2.8-2.76c-5.82.74-9.58,2.07-15.4,2.81.38-3.68,3.33-6.62,6.57-8.4s6.88-2.74,10.19-4.4,22-15.38,20.13-18.43c-2.68-1-18.51,10.92-21,12.32-5.84,3.29-7.39,2.72-13.24,6-.84-.68-8.19-15.1-27.43,10.56-7.84,10.46-2.64,17.37.23,24.38,2.79,6.8,19.33-6.61,19.33-6.61"/><path d="M715.69,651.85c-83.93,11.31-125.41-.91-126.59-2.39s-6.45-100.61-5.46-118.65c1-18.68-7.17-84,36.11-86.36,0,0,4.29,5.05,14.91,5.28,18.25.39,22.94-7.72,23.81-7.62,8.16.91,27.7,3.32,36.29,7.87,21.51,11.41,23.56,62.12,23.56,90.42S722.09,651,715.69,651.85Z"/><path class="cls-10" d="M640.26,354c-59.9-.3-38.21,118.17,1,100.48,38.33-17.26,59.09-99-1-100.48"/><path d="M659.78,395.57c-7.64-6.5-28.59-1.6-31.23-2.18-2.93-.64-16.11-12.64-24.26-5.36-3.73,3.35-6.48,10.22-5.17,15,5,18.18,25,8.87,27.94,9.12,6.94.59,21.61,20.52,34.57,7.06,6.34-6.58,10.3-13.32-1.85-23.65m-45.32,6.94c-5.44-.5-5.82-4.73-6.16-6.32,4.31,1.35,9.39,4.44,14.4,6,0,0-2.16.93-8.24.35m32.64,6.68c-4.87.23-8.93-2-9.58-4,6.14.21,11.58-.85,17.7-.38,0,0-1.63,4.05-8.12,4.35"/><path d="M677.85,390.53c6.61-16.91,1.61-37.42-25.94-39.61-8.77-.69-57.9,10.33-57.33,11.58,3.24,7.18,17.64,8.71,18.93,9.24Z"/><path d="M613.62,400.47a1.74,1.74,0,1,1-1.73-1.74,1.74,1.74,0,0,1,1.73,1.74"/><path d="M643.43,407.06a1.74,1.74,0,1,1-1.74-1.74,1.74,1.74,0,0,1,1.74,1.74"/><path class="cls-10" d="M458.16,620.72c-3.28,10.73-20.14,18.91-11.12,22.1,2.78.85,8.37,3.86,11.39,3.92,6.05.11,6-1.49,10.85-1.74,4.46-.38,6.51,4.57,16.44-9,5-6.83-20.13-20.5-26.38-21.1-18.38-1.76-23.91,4.71-1.18,5.83"/><path class="cls-21" d="M462.6,587.68a2.34,2.34,0,0,1-2.4,2.39l-64-2.59a2.53,2.53,0,0,1-2.38-2.56v-1.7a2.35,2.35,0,0,1,2.41-2.38l64,2.58a2.54,2.54,0,0,1,2.39,2.57Z"/><path class="cls-21" d="M457.59,631.76a2.45,2.45,0,0,1-3.48.77l-62.74-37.08a2.74,2.74,0,0,1-1.22-3.52l.78-1.47a2.45,2.45,0,0,1,3.48-.77l62.74,37.08a2.73,2.73,0,0,1,1.22,3.52Z"/><path class="cls-21" d="M398.65,583.34c-5.68-3.78-9.1-16.44-15.89-18.18-5.19-1.57-14.71,5.36-19.54,7.65,5.8,2.13,28.8,13.12,33.67,14.82a9.06,9.06,0,0,0-.11-5.16"/><path class="cls-21" d="M395,595.22c-6.54-1.49-17.23,5.08-23.25,1.3-4.75-2.73-7.1-14.77-9.09-20,5.56,2.77,29.26,11.93,33.86,14.31a8.2,8.2,0,0,1-3.43,3.63"/><path class="cls-22" d="M505.69,590.53a3.92,3.92,0,0,1-4,4L454,592.8a4.24,4.24,0,0,1-4-4.29v-2.85a3.92,3.92,0,0,1,4-4l47.62,1.74a4.24,4.24,0,0,1,4,4.29Z"/><path class="cls-22" d="M487.91,649a3.87,3.87,0,0,1-5.39,1.66L440,627a4.32,4.32,0,0,1-1.77-5.63l1.24-2.5a3.87,3.87,0,0,1,5.39-1.66l42.5,23.58a4.32,4.32,0,0,1,1.77,5.63Z"/><path class="cls-10" d="M434.75,641.24c1.69-11.09,9-15,18.52-14,2.88.44,9.22.14,12,1.4,5.5,2.52,2.9,4,5.57,8,3.95,6-32.32,12-34.89-1.39"/><path class="cls-18" d="M674.35,466.59c-5.07-13.38,5.19-22.31,19.84-18.28,22.3,6.14,32.88,40.22,65.37,37.11,30.34-2.9,32-61.5,32-61.5,16,11.23,20.69,4.27,20.69,4.27,6.71,43.05-15.86,93.25-52.78,97.94-35.71,4.54-72.35-25.82-85.15-59.54"/></g></g></svg>